<svg width="1024" height="1024" viewBox="0 0 1024 1024" fill="none" xmlns="http://www.w3.org/2000/svg">
<g clip-path="url(#clip0_106_2420)">
<path d="M713.429 632.857C699.202 632.927 685.268 636.898 673.143 644.339L610.901 581.896C625.384 561.466 633.163 537.042 633.163 512C633.163 486.958 625.384 462.534 610.901 442.104L673.143 379.661C685.268 387.102 699.202 391.073 713.429 391.143C729.364 391.143 744.942 386.417 758.192 377.564C771.442 368.711 781.769 356.127 787.867 341.405C793.965 326.682 795.561 310.482 792.452 294.853C789.343 279.223 781.669 264.867 770.401 253.599C759.133 242.331 744.777 234.657 729.147 231.548C713.518 228.439 697.318 230.035 682.595 236.133C667.873 242.231 655.289 252.558 646.436 265.808C637.583 279.058 632.857 294.636 632.857 310.571C632.927 324.798 636.898 338.732 644.339 350.857L581.896 413.099C561.466 398.616 537.042 390.837 512 390.837C486.958 390.837 462.534 398.616 442.104 413.099L379.661 350.857C387.102 338.732 391.073 324.798 391.143 310.571C391.143 294.636 386.417 279.058 377.564 265.808C368.711 252.558 356.127 242.231 341.405 236.133C326.682 230.035 310.482 228.439 294.853 231.548C279.223 234.657 264.867 242.331 253.599 253.599C242.331 264.867 234.657 279.223 231.548 294.853C228.439 310.482 230.035 326.682 236.133 341.405C242.231 356.127 252.558 368.711 265.808 377.564C279.058 386.417 294.636 391.143 310.571 391.143C324.798 391.073 338.732 387.102 350.857 379.661L413.099 442.104C398.616 462.534 390.837 486.958 390.837 512C390.837 537.042 398.616 561.466 413.099 581.896L350.857 644.339C338.732 636.898 324.798 632.927 310.571 632.857C294.636 632.857 279.058 637.583 265.808 646.436C252.558 655.289 242.231 667.873 236.133 682.595C230.035 697.318 228.439 713.518 231.548 729.147C234.657 744.777 242.331 759.133 253.599 770.401C264.867 781.669 279.223 789.343 294.853 792.452C310.482 795.561 326.682 793.965 341.405 787.867C356.127 781.769 368.711 771.442 377.564 758.192C386.417 744.942 391.143 729.364 391.143 713.429C391.073 699.202 387.102 685.268 379.661 673.143L442.104 610.901C462.534 625.384 486.958 633.163 512 633.163C537.042 633.163 561.466 625.384 581.896 610.901L644.339 673.143C636.898 685.268 632.927 699.202 632.857 713.429C632.857 729.364 637.583 744.942 646.436 758.192C655.289 771.442 667.873 781.769 682.595 787.867C697.318 793.965 713.518 795.561 729.147 792.452C744.777 789.343 759.133 781.669 770.401 770.401C781.669 759.133 789.343 744.777 792.452 729.147C795.561 713.518 793.965 697.318 787.867 682.595C781.769 667.873 771.442 655.289 758.192 646.436C744.942 637.583 729.364 632.857 713.429 632.857ZM713.429 270.286C721.396 270.286 729.185 272.648 735.81 277.075C742.435 281.502 747.599 287.794 750.648 295.155C753.697 302.516 754.495 310.616 752.94 318.431C751.386 326.245 747.549 333.424 741.915 339.058C736.281 344.692 729.103 348.529 721.288 350.083C713.473 351.638 705.373 350.84 698.012 347.791C690.651 344.741 684.359 339.578 679.932 332.953C675.506 326.328 673.143 318.539 673.143 310.571C673.143 299.887 677.387 289.64 684.942 282.085C692.497 274.53 702.744 270.286 713.429 270.286ZM270.286 310.571C270.286 302.604 272.648 294.815 277.075 288.19C281.502 281.565 287.794 276.401 295.155 273.352C302.516 270.303 310.616 269.505 318.431 271.06C326.245 272.614 333.424 276.451 339.058 282.085C344.692 287.719 348.529 294.897 350.083 302.712C351.638 310.527 350.84 318.627 347.791 325.988C344.741 333.349 339.578 339.641 332.953 344.068C326.328 348.494 318.539 350.857 310.571 350.857C299.887 350.857 289.64 346.613 282.085 339.058C274.53 331.503 270.286 321.256 270.286 310.571ZM310.571 753.714C302.604 753.714 294.815 751.352 288.19 746.925C281.565 742.498 276.401 736.206 273.352 728.845C270.303 721.484 269.505 713.384 271.06 705.569C272.614 697.755 276.451 690.576 282.085 684.942C287.719 679.308 294.897 675.471 302.712 673.917C310.527 672.362 318.627 673.16 325.988 676.209C333.349 679.259 339.641 684.422 344.068 691.047C348.494 697.672 350.857 705.461 350.857 713.429C350.857 724.113 346.613 734.36 339.058 741.915C331.503 749.47 321.256 753.714 310.571 753.714ZM512 592.571C496.064 592.571 480.487 587.846 467.237 578.993C453.987 570.139 443.66 557.556 437.562 542.833C431.463 528.111 429.868 511.911 432.977 496.281C436.086 480.652 443.759 466.296 455.027 455.027C466.296 443.759 480.652 436.086 496.281 432.977C511.911 429.868 528.111 431.463 542.833 437.562C557.556 443.66 570.139 453.987 578.993 467.237C587.846 480.487 592.571 496.064 592.571 512C592.571 533.369 584.083 553.863 568.973 568.973C553.863 584.083 533.369 592.571 512 592.571ZM713.429 753.714C705.461 753.714 697.672 751.352 691.047 746.925C684.422 742.498 679.259 736.206 676.209 728.845C673.16 721.484 672.362 713.384 673.917 705.569C675.471 697.755 679.308 690.576 684.942 684.942C690.576 679.308 697.755 675.471 705.569 673.917C713.384 672.362 721.484 673.16 728.845 676.209C736.206 679.259 742.498 684.422 746.925 691.047C751.352 697.672 753.714 705.461 753.714 713.429C753.714 724.113 749.47 734.36 741.915 741.915C734.36 749.47 724.113 753.714 713.429 753.714Z" fill="#3673E6"/>
</g>
<defs>
<clipPath id="clip0_106_2420">
<rect width="1024" height="1024" rx="120" fill="white"/>
</clipPath>
</defs>
</svg>